<svg xmlns="http://www.w3.org/2000/svg" xmlns:xlink="http://www.w3.org/1999/xlink" width="397" zoomAndPan="magnify" viewBox="0 0 297.75 228.749995" height="305" preserveAspectRatio="xMidYMid meet" version="1.0"><defs><clipPath id="14dda01d57"><path d="M 0.0390625 0 L 296.714844 0 L 296.714844 227.75 L 0.0390625 227.75 Z M 0.0390625 0 " clip-rule="nonzero"/></clipPath><clipPath id="35bb80ba41"><path d="M 0.0390625 0 L 296.714844 0 L 296.714844 227.75 L 0.0390625 227.75 Z M 0.0390625 0 " clip-rule="nonzero"/></clipPath></defs><g clip-path="url(#14dda01d57)"><path fill="#000000" d="M 86.191406 211.746094 C 86.191406 211.746094 25.332031 218.15625 6.117188 162.101562 C -11.273438 111.363281 11.5625 78.992188 47.335938 62.613281 C 51.324219 54.6875 57.671875 46.472656 67.667969 41.820312 C 69.910156 29.96875 78.847656 9.054688 113.691406 1.933594 C 147.308594 -4.9375 164.53125 7.785156 172.386719 20.441406 C 190.621094 14.542969 218.75 10.710938 244.75 26.765625 C 271.089844 43.023438 276.339844 67.207031 276.417969 83.628906 C 283.464844 89.234375 292.078125 100.585938 295.734375 123.386719 C 302.132812 163.320312 273.679688 191.464844 237.210938 191.832031 C 230.390625 200.914062 217.652344 209.316406 193.871094 207.988281 C 168.425781 222.328125 119.042969 243.070312 86.191406 211.746094 Z M 86.191406 211.746094 " fill-opacity="1" fill-rule="evenodd"/></g><path fill="#ffffff" d="M 87.523438 49.855469 C 87.523438 49.855469 101.003906 44.386719 112.355469 47.453125 C 112.847656 47.589844 113.308594 47.734375 113.75 47.90625 C 114.03125 48.910156 114.175781 50.054688 114.144531 51.339844 C 114.039062 56.144531 110.878906 57.550781 107.785156 58.871094 C 105.09375 57.371094 101.582031 56.699219 97.398438 56.9375 C 84.949219 57.636719 66.3125 65.773438 60.730469 75.363281 C 65.964844 75.328125 64.402344 75.148438 69.890625 74.585938 C 76.972656 73.863281 82.128906 75.113281 85.664062 77.441406 C 95.71875 84.0625 92.832031 99.359375 84.277344 102.75 C 72.695312 107.34375 65.296875 108.945312 71.492188 96.152344 C 85.042969 68.179688 15.457031 94.015625 21.0625 134.601562 C 25.597656 167.433594 56.5625 187.722656 70.972656 185.058594 C 85.390625 182.390625 88.597656 131.933594 88.597656 131.933594 C 88.597656 131.933594 79.25 131.40625 63.765625 137.277344 C 48.289062 143.148438 44.285156 155.15625 39.46875 148.21875 C 34.671875 141.28125 40.28125 127.402344 67.503906 124.199219 C 94.730469 120.992188 104.609375 99.910156 111.28125 82.828125 C 112.890625 78.703125 115.964844 71.910156 118.164062 66.328125 C 119.605469 62.664062 122.222656 62.324219 125.160156 63.335938 C 129.832031 64.941406 164.128906 45.988281 152.125 28.375 C 140.109375 10.753906 90.992188 34.773438 87.523438 49.855469 Z M 157.441406 139.058594 C 155.292969 133.65625 151.117188 128.910156 144.914062 125.007812 C 130.496094 115.933594 121.957031 116.734375 124.359375 99.382812 C 126.753906 82.035156 136.902344 61.214844 159.597656 62.015625 C 182.28125 62.808594 185.75 93.246094 196.160156 98.582031 C 206.574219 103.917969 213.777344 89.507812 207.101562 74.289062 C 200.429688 59.078125 176.9375 45.734375 162 48.390625 C 162 48.390625 172.941406 32.371094 198.828125 32.371094 C 224.726562 32.371094 244.75 46.253906 253.289062 69.210938 C 261.828125 92.164062 241.011719 109.515625 239.671875 118.054688 C 238.335938 126.601562 254.628906 132.472656 258.09375 115.121094 C 261.5625 97.773438 266.371094 94.570312 273.578125 102.84375 C 280.777344 111.117188 288.515625 147.691406 269.035156 165.039062 C 249.546875 182.390625 235.128906 171.984375 235.128906 162.101562 C 235.128906 152.222656 235.136719 117.789062 231.933594 107.914062 C 228.730469 98.046875 216.1875 102.84375 213.511719 107.914062 C 210.84375 112.984375 217.515625 125 222.324219 146.089844 C 227.128906 167.179688 221.785156 189.597656 203.636719 189.0625 C 185.484375 188.535156 180.679688 181.589844 186.820312 173.050781 C 192.957031 164.511719 191.890625 150.09375 180.949219 150.09375 C 170 150.09375 161.726562 173.578125 168.398438 186.394531 C 175.070312 199.210938 171.601562 202.414062 162.792969 205.347656 C 153.988281 208.285156 105.1875 214.0625 96.332031 178.65625 C 87.472656 143.25 101.652344 128.441406 110.480469 128.476562 C 118.039062 128.5 137.023438 133.945312 141.222656 143.59375 C 146.730469 156.222656 160.535156 146.8125 157.441406 139.058594 Z M 157.441406 139.058594 " fill-opacity="1" fill-rule="evenodd"/><g clip-path="url(#35bb80ba41)"><path fill="#000000" d="M 86.191406 211.746094 C 86.191406 211.746094 25.332031 218.15625 6.117188 162.101562 C -11.273438 111.363281 11.5625 78.992188 47.335938 62.613281 C 51.324219 54.6875 57.671875 46.472656 67.667969 41.820312 C 69.910156 29.96875 78.847656 9.054688 113.691406 1.933594 C 147.308594 -4.9375 164.53125 7.785156 172.386719 20.441406 C 190.621094 14.542969 218.75 10.710938 244.75 26.765625 C 271.089844 43.023438 276.339844 67.207031 276.417969 83.628906 C 283.464844 89.234375 292.078125 100.585938 295.734375 123.386719 C 302.132812 163.320312 273.679688 191.464844 237.210938 191.832031 C 230.390625 200.914062 217.652344 209.316406 193.871094 207.988281 C 168.425781 222.328125 119.042969 243.070312 86.191406 211.746094 Z M 86.191406 211.746094 " fill-opacity="1" fill-rule="evenodd"/></g><path fill="#ffffff" d="M 87.523438 49.855469 C 87.523438 49.855469 101.003906 44.386719 112.355469 47.453125 C 112.847656 47.589844 113.308594 47.734375 113.75 47.90625 C 114.03125 48.910156 114.175781 50.054688 114.144531 51.339844 C 114.039062 56.144531 110.878906 57.550781 107.785156 58.871094 C 105.09375 57.371094 101.582031 56.699219 97.398438 56.9375 C 84.949219 57.636719 66.3125 65.773438 60.730469 75.363281 C 65.964844 75.328125 64.402344 75.148438 69.890625 74.585938 C 76.972656 73.863281 82.128906 75.113281 85.664062 77.441406 C 95.71875 84.0625 92.832031 99.359375 84.277344 102.75 C 72.695312 107.34375 65.296875 108.945312 71.492188 96.152344 C 85.042969 68.179688 15.457031 94.015625 21.0625 134.601562 C 25.597656 167.433594 56.5625 187.722656 70.972656 185.058594 C 85.390625 182.390625 88.597656 131.933594 88.597656 131.933594 C 88.597656 131.933594 79.25 131.40625 63.765625 137.277344 C 48.289062 143.148438 44.285156 155.15625 39.46875 148.21875 C 34.671875 141.28125 40.28125 127.402344 67.503906 124.199219 C 94.730469 120.992188 104.609375 99.910156 111.28125 82.828125 C 112.890625 78.703125 115.964844 71.910156 118.164062 66.328125 C 119.605469 62.664062 122.222656 62.324219 125.160156 63.335938 C 129.832031 64.941406 164.128906 45.988281 152.125 28.375 C 140.109375 10.753906 90.992188 34.773438 87.523438 49.855469 Z M 157.441406 139.058594 C 155.292969 133.65625 151.117188 128.910156 144.914062 125.007812 C 130.496094 115.933594 121.957031 116.734375 124.359375 99.382812 C 126.753906 82.035156 136.902344 61.214844 159.597656 62.015625 C 182.28125 62.808594 185.75 93.246094 196.160156 98.582031 C 206.574219 103.917969 213.777344 89.507812 207.101562 74.289062 C 200.429688 59.078125 176.9375 45.734375 162 48.390625 C 162 48.390625 172.941406 32.371094 198.828125 32.371094 C 224.726562 32.371094 244.75 46.253906 253.289062 69.210938 C 261.828125 92.164062 241.011719 109.515625 239.671875 118.054688 C 238.335938 126.601562 254.628906 132.472656 258.09375 115.121094 C 261.5625 97.773438 266.371094 94.570312 273.578125 102.84375 C 280.777344 111.117188 288.515625 147.691406 269.035156 165.039062 C 249.546875 182.390625 235.128906 171.984375 235.128906 162.101562 C 235.128906 152.222656 235.136719 117.789062 231.933594 107.914062 C 228.730469 98.046875 216.1875 102.84375 213.511719 107.914062 C 210.84375 112.984375 217.515625 125 222.324219 146.089844 C 227.128906 167.179688 221.785156 189.597656 203.636719 189.0625 C 185.484375 188.535156 180.679688 181.589844 186.820312 173.050781 C 192.957031 164.511719 191.890625 150.09375 180.949219 150.09375 C 170 150.09375 161.726562 173.578125 168.398438 186.394531 C 175.070312 199.210938 171.601562 202.414062 162.792969 205.347656 C 153.988281 208.285156 105.1875 214.0625 96.332031 178.65625 C 87.472656 143.25 101.652344 128.441406 110.480469 128.476562 C 118.039062 128.5 137.023438 133.945312 141.222656 143.59375 C 146.730469 156.222656 160.535156 146.8125 157.441406 139.058594 Z M 157.441406 139.058594 " fill-opacity="1" fill-rule="evenodd"/></svg>